P1
# CREATOR: GIMP PNM Filter Version 1.1
11 8
0010000010000010001000001111111000110111011011111111111101111111011010
000010100011011000