P1
# CREATOR: GIMP PNM Filter Version 1.1
11 8
0010000010010010001001101111111011110111011111111111111011111111100001
000100000100000100